# xmcd
#
# Track frame offsets: 
#        183
#        17738
#        48030
#        76695
#        98605
#        127718
#        158040
#        189335
#
# Disc length: 2872 seconds
#
# Revision: 1
# Processed by: cddbd v1.5.2PL0 Copyright (c) Steve Scherf et al.
# Submitted via: ExactAudioCopy v1.0b6
#
DISCID=460b3608
DTITLE=Betty Boo - Thing Goin' On (US CD)
DYEAR=1992
DGENRE=Rap
TTITLE0=Thing Goin' On (MK Radio Remix)
TTITLE1=Thing Goin' On (12" Mix)
TTITLE2=Thing Goin' On (MK Underground Mix)
TTITLE3=I'm On My Way (Boo Choons)
TTITLE4=Thing Goin' On (MK Club Mix)
TTITLE5=Thing Goin' On (MK Underground Dub)
TTITLE6=I'm On My Way (Tumpin' Dub)
TTITLE7=I'm On My Way (Batman and Robin Remix)
EXTD=
EXTT0=
EXTT1=
EXTT2=
EXTT3=
EXTT4=
EXTT5=
EXTT6=
EXTT7=
PLAYORDER=
